PathFileType        4      (X/Y/Z)      C:\Users\ibrah\OneDrive - KTH\Model Validation - Orthoload\rmr-solver-1.0 - original\rmr-solver-1.0\ExperimentalData\S8R\trc\transformed_MSffkg1.trc         
DataRate	CameraRate	NumFrames	NumMarkers	Units	OrigDataRate	OrigDataStartFrame	OrigNumFrames
50.0	50.0	13	27	mm	50.0	284	566
Frame#	Time	IJ			PX			C7			T8			SC			AA			TS			AI			PC			ACv			ACd			GH			EM			EL			EM2			EL2			US			RS			US2			RS2			MCP2			MCP5			SCREWAA			SCREWTS			SCREWAI			ACvloc			ACdloc			
		X1	Y1	Z1	X2	Y2	Z2	X3	Y3	Z3	X4	Y4	Z4	X5	Y5	Z5	X6	Y6	Z6	X7	Y7	Z7	X8	Y8	Z8	X9	Y9	Z9	X10	Y10	Z10	X11	Y11	Z11	X12	Y12	Z12	X13	Y13	Z13	X14	Y14	Z14	X15	Y15	Z15	X16	Y16	Z16	X17	Y17	Z17	X18	Y18	Z18	X19	Y19	Z19	X20	Y20	Z20	X21	Y21	Z21	X22	Y22	Z22	X23	Y23	Z23	X24	Y24	Z24	X25	Y25	Z25	X26	Y26	Z26	X27	Y27	Z27	
284	5.66	-67.5226618883272	29.75636453488402	4.748764290897072	14.78050247609383	-94.73963885365283	6.085545626859037	-212.8495694183555	85.71169081552827	13.96698548328243	-233.7980552329506	-124.4862110641254	24.34692583877962	-74.03376114309285	38.40853139171018	29.03898618556938	-172.2647806918377	57.71302450408631	178.180919997285	-214.8373407227979	-11.40149160940154	120.7287962730866	-107.7748130216579	-134.2265135430151	153.767184626101	-130.1788069874419	79.92581281346209	109.0264310317043	-181.3757485279723	85.31004007480531	144.373235231933	-181.3757485279723	85.31004007480531	144.373235231933	-118.0628331851674	27.58357241892575	186.8479133749313	142.9014654629014	129.2712626390305	264.049075765753	101.7477588891695	168.0103100692461	308.5229115716749													222.6207409660762	347.3211984048505	279.5494181890081	253.173795197449	331.2246360701688	326.8143411134072																						
285	5.68	-66.8239863429996	30.18927427411318	4.877916618457854	16.21226056388733	-93.80891924254335	6.431390837159278	-212.5017478430144	85.26906580394646	13.69561217638445	-232.2259351655083	-125.0495427423459	23.9942349214176	-73.4552891981772	38.79875324028347	29.14988017203434	-172.7625119509436	57.61277241763793	177.5838901154943	-214.352708496821	-12.05285448239401	120.0841653418884	-106.0709343599061	-133.6319690621007	153.7188382918697	-130.6655001938792	80.1933657905968	108.549850709123	-182.0496670661765	85.05835417308263	143.6976790749563	-182.0496670661765	85.05835417308263	143.6976790749563	-118.1602833206582	27.95517729886914	186.7258365934574	139.5789409528977	136.129870920623	266.2250452701783	97.04101918311824	174.2371190476674	309.9652560478138													213.3904959310093	356.2215203916281	280.6549591012728	244.1769478430456	341.1513953022979	328.131505654254																						
286	5.7	-66.06862335298948	30.60775971667487	4.992888035783315	17.64846720203251	-92.91732066301248	6.844852263367792	-212.0712911228857	84.86776479299743	13.34268293366795	-230.6538795739952	-125.5501535659293	23.65299948054059	-72.82356488264554	39.18731094059335	29.24034480958993	-173.170924282232	57.48068909044863	177.0249297630632	-213.8207418779108	-12.68978980597618	119.4788751935588	-104.4115513922263	-133.0757804094149	153.6846389876244	-131.0636528090395	80.41058431987847	108.1078235987126	-182.6190382611895	84.78163483311361	143.0640074823239	-182.6190382611895	84.78163483311361	143.0640074823239	-118.2532361866688	28.31604700385827	186.6593925531046	136.2117601762554	142.6045469911241	268.3763568655179	92.36016502081458	180.0463973726788	311.4162760144084													204.2357703454718	364.6096497332104	281.936725646585	235.2005447193588	350.5142282120985	329.6162304305924																						
287	5.72	-65.273910826558	31.01575724228756	5.094841427855131	19.07796437124235	-92.05851725548483	7.321032535876814	-211.578754534819	84.50601479920294	12.91824211798491	-229.093007811466	-125.9925502342692	23.33210818723774	-72.15502694590276	39.57765858891515	29.31205735904728	-173.4932998717806	57.32136943706396	176.5064811617155	-213.240193641372	-13.3145009892291	118.9155646342399	-102.7833535125488	-132.5548808806804	153.6714839076057	-131.3760359255839	80.58267623632575	107.703348064607	-183.0890636661819	84.48324064093663	142.4740296146097	-183.0890636661819	84.48324064093663	142.4740296146097	-118.3453953079498	28.66898128611892	186.6481601863779	132.8186753057618	148.7093101792045	270.4780613879594	87.72740653699401	185.4561360700349	312.8547677173633													195.1752928721256	372.5172343361205	283.3762203362515	226.268324850623	359.3437562513254	331.2489990867491																						
288	5.74	-64.45882508975923	31.41556617627773	5.187857522047511	20.48841167375929	-91.22749982217142	7.85291662331537	-211.0463535175153	84.1796230905308	12.43862887455722	-227.5551379441825	-126.3838548871139	23.03988248958689	-71.46748152775332	39.97079975629892	29.36998626236488	-173.7373251878607	57.13692735917886	176.031039177657	-212.613765233565	-13.93104905661105	118.3963078335738	-101.1769911159468	-132.0677723116295	153.6848883648113	-131.6097268276372	80.71344423300555	107.3397510591573	-183.4692852666565	84.16440095919927	141.9298255216094	-183.4692852666565	84.16440095919927	141.9298255216094	-118.4397557432363	29.01190377428634	186.6896673291738	129.416669030018	154.4568616688442	272.5118786613932	83.16120877912478	190.4836760402708	314.2645633489033													186.2263070805736	379.9669280989805	284.9502894897146	217.4030240538561	367.6633220367769	333.0061673206344																						
289	5.76	-63.64286687758513	31.8077467734866	5.278606016560873	21.86698137103878	-90.42091378612685	8.43141583376241	-210.4966633977189	83.88232236146145	11.92560742659975	-226.0521750194329	-126.7333584602322	22.78328692049342	-70.77904247809238	40.36521853714439	29.42202835320617	-173.9147302443529	56.92714982585232	175.600802430752	-211.948134342517	-14.54495473766277	117.9223755997682	-99.58793239610758	-131.6146671945991	153.7289176345417	-131.7757087306662	80.80511971481087	107.0202906063747	-183.7730717441951	83.82438052517388	141.43335365997	-183.7730717441951	83.82438052517388	141.43335365997	-118.5388566830533	29.33854220803497	186.7795816228108	126.0210645323914	159.8578331574843	274.4664405066204	78.67654302744697	195.1449342669369	315.6348216197153													177.4054892864511	386.9722479297931	286.6318268291898	208.6272100338581	375.4886588719782	334.8605522121078																						
290	5.78	-62.84484717438716	32.19113775878883	5.375761952576316	23.20117379607152	-89.6372694271231	9.045625677109625	-209.9512464079309	83.6062364535073	11.40492758173125	-224.5954119325814	-127.0519519296867	22.56720703944497	-70.10700220506382	40.75700251101021	29.47835672528053	-174.0405683060169	56.68987640862522	175.2173306915902	-211.253589329221	-15.16264012851552	117.4939995206702	-98.01682457667498	-131.1974387850987	153.8061419505621	-131.8880884784102	80.85839977953275	106.7477750030006	-184.0167555208916	83.46085166151641	140.986064100068	-184.0167555208916	83.46085166151641	140.986064100068	-118.6450284035614	29.63940479423113	186.9120109488804	122.6457670394377	164.92022586653	276.3370002015389	74.2853887059884	199.4538005372806	316.9598851262574													168.7298983286093	393.5381203850653	288.3907269637184	199.9640968248584	382.8281465103204	336.7822572828234																						
291	5.8	-62.0816630533262	32.56299842770157	5.48920773491878	24.47968319337512	-88.87700474084406	9.68331083753073	-209.4293033371956	83.34244758722494	10.90439314202198	-223.1948049304267	-127.3514552774474	22.39386376531377	-69.46671851182947	41.14016060675597	29.55052215136915	-174.1321833584083	56.42157591292628	174.8812361993146	-210.5433072218602	-15.79074867498428	117.1101705574925	-96.46934816849219	-130.8193820870653	153.917619125994	-131.962998665349	80.87268253553215	106.5242180168791	-184.2184833140871	83.07044618805757	140.5885477430466	-184.2184833140871	83.07044618805757	140.5885477430466	-118.7605666444229	29.90296789132185	187.0798756619909	119.3036320792173	169.6491228767813	278.1246685878995	69.99744791346005	203.421783247923	318.2387453335661													160.217880187195	399.6620886485487	290.1950265709806	191.4382709360462	389.6836530817451	338.7396910941272																						
292	5.82	-61.36715866769998	32.91927204661316	5.629086171823412	25.69323611314211	-88.14239186506306	10.33159853670303	-208.9464490688555	83.08163921453506	10.45158202042723	-221.8582910723506	-127.6438720547396	22.26242576344124	-68.87060362841416	41.50712226989851	29.65038012101444	-174.2079407904829	56.11807316414145	174.5919347431327	-209.8323431741085	-16.43539516162326	116.7685028018061	-94.95559813631378	-130.4848064263215	154.062912507548	-132.0172785133852	80.846474616396	106.3505473523499	-184.3968683824668	82.64944088908342	140.2402492505673	-184.3968683824668	82.64944088908342	140.2402492505673	-118.8877813816332	30.11697892807006	187.2753126668655	116.006937536823	174.046736503174	279.8352665967453	65.82101132353452	207.0579612000361	319.47418180893													151.8898498757614	405.3360984435573	292.0121575978238	183.0762662855485	396.0519146663016	340.7007189773601																						
293	5.84	-60.71116317320511	33.25495809994194	5.804788768005182	26.83532403509187	-87.4372905129166	10.9778290140919	-208.513704761194	82.81478229429834	10.07141630260573	-220.5912137138771	-127.9406051455551	22.16886754017268	-68.32729472271795	41.8493874043977	29.78893820038729	-174.2858186677026	55.77536484816003	174.3474784776386	-209.1364235873602	-17.10140585444411	116.4651885299322	-93.48906544517779	-130.1984958121465	154.2401535355191	-132.0670470857469	80.777927083281	106.2263811180065	-184.5695507922675	82.19451674780166	139.9392667292603	-184.5695507922675	82.19451674780166	139.9392667292603	-119.0288895006696	30.26977525235775	187.4900746470223	112.767920395164	178.1128212821796	281.4779038417516	61.76389742932359	210.3692686795725	320.6716605967876													143.7688815361194	410.5487367036407	293.8102301427766	174.906937439066	401.9263593557467	342.6338746639236																						
294	5.86	-60.11878573639565	33.5645715979097	6.023973636016312	27.90275903991448	-86.76676510885682	11.6104838814452	-208.136784953132	82.5338276965607	9.783814602999279	-219.3959144298813	-128.2516757385576	22.10610078343059	-67.84107134993624	42.15828117259491	29.97523130384199	-174.3819706584615	55.39045476578162	174.1444867701584	-208.4706506364404	-17.79161207571256	116.1950629371401	-92.08532334199299	-129.9650851869775	154.4461575944992	-132.126291542206	80.66544346782693	106.1498839466116	-184.7517812418806	81.70352432694251	139.6822548976608	-184.7517812418806	81.70352432694251	139.6822548976608	-119.185748385767	30.3515239432638	187.7158953237634	109.599327181623	181.8454452647929	283.0634028057059	57.83437891466657	213.3611065269154	321.8380868870983													135.881054176626	415.2877624239189	295.5592629426479	166.9615993487122	407.2992453008346	344.5095522114289																						
295	5.88	-59.59002888159834	33.84265908489507	6.291707370032748	28.89599540623934	-86.1365950197346	12.22009416709492	-207.8157366348298	82.2323641630248	9.601667220850382	-218.2715365140236	-128.584991673517	22.06438221972149	-67.41156596394586	42.4257556593234	30.21533374971234	-174.5093758987187	54.96213651776561	173.9781843835559	-207.8482317576028	-18.50625799058153	115.9517868774634	-90.76054299771678	-129.7884081744456	154.6765990252777	-132.2055915476451	80.50829736428622	106.1177108393372	-184.9551434591262	81.17618621265014	139.4644410378565	-184.9551434591262	81.17618621265014	139.4644410378565	-119.3594556002753	30.35529839173634	187.9448017442871	106.5149213685915	185.242071900679	284.6026888335584	54.04201116436852	216.0382359093293	322.9805099560564													128.255522890023	419.5427468694575	297.2322860929739	159.2739243352885	412.1639547658684	346.3010991411291																						
296	5.9	-59.11975695222501	34.08433407684447	6.609815002165404	29.8191795937778	-85.55271808568277	12.80002304155207	-207.5449611578282	81.90620027884798	9.529354897467181	-217.2140675638302	-128.9457125147554	22.03197557850798	-67.03379062510302	42.6451730576381	30.5116063692381	-174.6766855951662	54.4916554424579	173.8425485794206	-207.2793437365158	-19.24257554965634	115.7281446561426	-89.5299719950726	-129.6708747127044	154.9262464396184	-132.3110890759155	80.3071968909475	106.1250428724321	-185.1865200839277	80.61467223140747	139.2797551171087	-185.1865200839277	80.61467223140747	139.2797551171087	-119.5498644563178	30.27792313741996	188.1693653424873	103.5298920434395	188.3008665197931	286.1052592449936	50.39828807623022	218.4058778977151	324.1048749793471													120.9243107675045	423.3076309079581	298.8062528294568	151.8796105562043	416.5172702109797	347.9857389025433																						
